<svg xmlns="http://www.w3.org/2000/svg" xmlns:xlink="http://www.w3.org/1999/xlink" width="306.706" height="400.42" viewBox="0 0 306.706 400.42"><defs><style>.a{fill:#124272;}.b{fill:#f0f0f0;}.c{fill:#002e5d;}.d{fill:#d6d6d6;}.e{fill:#bdbdbd;}.f{fill:#e3ba32;}.g{fill:#fff;}.h{filter:url(#a);}</style><filter id="a" x="0" y="128.293" width="306.706" height="190.558" filterUnits="userSpaceOnUse"><feOffset input="SourceAlpha"/><feGaussianBlur stdDeviation="3" result="b"/><feFlood flood-opacity="0.161"/><feComposite operator="in" in2="b"/><feComposite in="SourceGraphic"/></filter></defs><g transform="translate(5.363 65)"><g transform="translate(0 -65)"><ellipse class="a" cx="147.99" cy="8.83" rx="147.99" ry="8.83" transform="translate(0 382.761)"/><path class="b" d="M2.48,160v30.287a5.28,5.28,0,0,0,5.265,5.265H285.92a5.28,5.28,0,0,0,5.266-5.265V160Z" transform="translate(1.157 149.851)"/><g class="h" transform="matrix(1, 0, 0, 1, -5.36, 0)"><path class="c" d="M291.186,47.615a5.265,5.265,0,0,0-5.265-5.265H7.745A5.265,5.265,0,0,0,2.48,47.615V214.908H291.186Z" transform="translate(6.52 94.94)"/></g><rect class="d" width="99.31" height="30.493" transform="translate(98.944 345.36)"/><rect class="b" width="145.673" height="14.271" transform="translate(75.081 375.838)"/><rect class="e" width="99.31" height="11.015" transform="translate(98.944 345.36)"/><rect class="f" width="258.917" height="142.065" transform="translate(18.554 152.312)"/><path class="c" d="M95.948,71.59,77.937,89.6,59.912,71.59l-7.2,7.2L70.721,96.817,52.71,114.828l7.2,7.2,18.026-18.011L95.948,122.03l7.2-7.2L85.139,96.817,103.15,78.791Z" transform="translate(24.6 108.59)"/><path class="c" d="M165.14,78.791l-7.2-7.2L139.913,89.6,121.9,71.59l-7.2,7.2,18.011,18.026L114.7,114.828l7.2,7.2,18.011-18.011,18.026,18.011,7.2-7.2L147.129,96.817Z" transform="translate(53.531 108.59)"/><path class="c" d="M153.355,142.534c-38.134-26.4-76.753-.279-77.149,0l-4.987-7.246c.425-.308,44-29.745,87.122,0Z" transform="translate(33.239 132.116)"/><path class="g" d="M305.593,0H175.057a5.867,5.867,0,0,0-5.867,5.867V90.173a5.867,5.867,0,0,0,5.867,5.867h15.107l21.906,35.309L225.482,96.04h80.111a5.867,5.867,0,0,0,5.867-5.867V5.867A5.867,5.867,0,0,0,305.593,0Z" transform="translate(-80.648)"/><path class="c" d="M202.958,48.654a1.32,1.32,0,0,1-1-.425,1.379,1.379,0,0,1-.425-1V40.822h-16.4a1.379,1.379,0,0,1-1.012-.411A1.467,1.467,0,0,1,183.7,39.4V35.645a2.332,2.332,0,0,1,.352-1.291,14.362,14.362,0,0,1,.807-1.2L200.993,12.94a2.933,2.933,0,0,1,2.156-1.32h4.033a1.467,1.467,0,0,1,1.467,1.467V34.178H213.2a1.467,1.467,0,0,1,1.467,1.467V39.4a1.427,1.427,0,0,1-1.437,1.423h-4.547v6.409a1.379,1.379,0,0,1-.425,1,1.32,1.32,0,0,1-1,.425Zm-1.467-14.447V22.884l-9.006,11.294Z" transform="translate(-73.876 5.423)"/><path class="c" d="M236.521,25.562v9.416a25.342,25.342,0,0,1-.939,5.691,11.837,11.837,0,0,1-2.435,4.547,11.162,11.162,0,0,1-4.327,3.021,20.3,20.3,0,0,1-13.1,0,11.1,11.1,0,0,1-4.312-3.021,12.042,12.042,0,0,1-2.435-4.547,24.553,24.553,0,0,1-.924-5.691c-.073-1.349-.1-2.933-.1-4.576s0-3.241.1-4.576a25.331,25.331,0,0,1,.924-5.749,12.248,12.248,0,0,1,2.435-4.62,11.425,11.425,0,0,1,4.312-3.095,16.794,16.794,0,0,1,6.556-1.129,17.6,17.6,0,0,1,6.541,1.085,11,11,0,0,1,4.327,3.021,11.734,11.734,0,0,1,2.435,4.547A25.212,25.212,0,0,1,236.521,25.562ZM215.2,34.714a11.015,11.015,0,0,0,1.819,5.867,7.656,7.656,0,0,0,10.531,0,11.015,11.015,0,0,0,1.833-5.867c0-1.349.1-2.831.1-4.4s0-3.109-.1-4.4a11.058,11.058,0,0,0-1.833-5.867,7.7,7.7,0,0,0-10.531,0,11.059,11.059,0,0,0-1.819,5.867c0,1.335-.117,2.816-.117,4.4s.044,3.109.117,4.459Z" transform="translate(-62.559 5.239)"/><path class="c" d="M249.833,48.654a1.349,1.349,0,0,1-1.012-.425,1.379,1.379,0,0,1-.425-1V40.822H232A1.427,1.427,0,0,1,230.56,39.4V35.645a2.332,2.332,0,0,1,.352-1.291c.235-.381.5-.777.821-1.2L247.867,12.94a2.933,2.933,0,0,1,2.171-1.32h4.019a1.379,1.379,0,0,1,1,.425,1.32,1.32,0,0,1,.425,1V34.178h4.561a1.379,1.379,0,0,1,1,.425,1.467,1.467,0,0,1,.425,1.012V39.37a1.467,1.467,0,0,1-.425,1.012,1.364,1.364,0,0,1-1,.411h-4.561v6.439a1.467,1.467,0,0,1-1.467,1.467Zm-1.467-14.447V22.884l-9.02,11.294Z" transform="translate(-52.007 5.423)"/><path class="c" d="M201.622,55.848a.576.576,0,0,1,.557.572v.733a.576.576,0,0,1-.557.572h-8.375a.576.576,0,0,1-.557-.572V43.777a.557.557,0,0,1,.557-.557h8.214a.528.528,0,0,1,.381.161.543.543,0,0,1,.176.4v.748a.543.543,0,0,1-.176.4.528.528,0,0,1-.381.161h-6.849v4.4h6.351a.528.528,0,0,1,.381.161.543.543,0,0,1,.176.4v.748a.543.543,0,0,1-.176.4.528.528,0,0,1-.381.161h-6.351v4.532Z" transform="translate(-69.68 20.171)"/><path class="c" d="M208.033,43.22a7.407,7.407,0,0,1,1.921.249,4.679,4.679,0,0,1,1.584.763,3.725,3.725,0,0,1,1.085,1.335,4.4,4.4,0,0,1,.411,1.936,4.063,4.063,0,0,1-.851,2.684,4.576,4.576,0,0,1-2.141,1.467l3.124,5.441a.542.542,0,0,1,.073.22.4.4,0,0,1-.147.323.381.381,0,0,1-.308.147h-.895a.792.792,0,0,1-.616-.22,1.7,1.7,0,0,1-.279-.352l-3.007-5.28h-3.564v5.28a.484.484,0,0,1-.161.4.5.5,0,0,1-.4.176h-.836a.6.6,0,0,1-.572-.572V43.777a.576.576,0,0,1,.572-.557Zm-3.608,6.791h3.505a3.931,3.931,0,0,0,2.317-.587,2.2,2.2,0,0,0,.807-1.921,2.068,2.068,0,0,0-.807-1.863,4.166,4.166,0,0,0-2.317-.557h-3.505Z" transform="translate(-65.121 20.171)"/><path class="c" d="M218.639,43.22a7.216,7.216,0,0,1,1.907.249,4.679,4.679,0,0,1,1.584.763,3.931,3.931,0,0,1,1.1,1.335,4.4,4.4,0,0,1,.4,1.936,4.048,4.048,0,0,1-.836,2.728,4.576,4.576,0,0,1-2.141,1.467l3.124,5.441a.5.5,0,0,1,0,.22.425.425,0,0,1-.132.323.4.4,0,0,1-.323.147h-.895a.777.777,0,0,1-.6-.22,1.7,1.7,0,0,1-.279-.352l-2.933-5.28h-3.564v5.28a.576.576,0,0,1-.557.572h-.851a.576.576,0,0,1-.557-.572V43.777a.557.557,0,0,1,.557-.557Zm-3.608,6.791h3.505a3.872,3.872,0,0,0,2.3-.587,2.215,2.215,0,0,0,.821-1.921,2.083,2.083,0,0,0-.821-1.863,4.107,4.107,0,0,0-2.3-.557h-3.505Z" transform="translate(-60.164 20.171)"/><path class="c" d="M223.329,48.7a6.646,6.646,0,0,1,.4-2.185,5.353,5.353,0,0,1,1.115-1.789,5.28,5.28,0,0,1,1.775-1.2,6.923,6.923,0,0,1,4.855,0,5.28,5.28,0,0,1,1.775,1.2,5.354,5.354,0,0,1,1.115,1.789,6.645,6.645,0,0,1,.4,2.185v3.681a6.733,6.733,0,0,1-.425,2.185,5.089,5.089,0,0,1-1.1,1.789,5.206,5.206,0,0,1-1.775,1.2,6.835,6.835,0,0,1-4.825,0,5.045,5.045,0,0,1-2.933-2.933,6.732,6.732,0,0,1-.425-2.185C223.285,51.147,223.285,49.915,223.329,48.7Zm9.46.1a5.237,5.237,0,0,0-.323-1.7,3.285,3.285,0,0,0-.792-1.2,3.1,3.1,0,0,0-1.173-.719,4.752,4.752,0,0,0-2.933,0,3.1,3.1,0,0,0-1.173.719,3.315,3.315,0,0,0-.792,1.2,4.9,4.9,0,0,0-.308,1.7c0,.616,0,1.2,0,1.731v1.745a4.958,4.958,0,0,0,.308,1.7,3.315,3.315,0,0,0,.792,1.2,3.066,3.066,0,0,0,1.173.7,4.488,4.488,0,0,0,2.933,0,3.066,3.066,0,0,0,1.173-.7,3.285,3.285,0,0,0,.777-1.2,5.323,5.323,0,0,0,.323-1.7V50.531c0-.543.044-1.115.015-1.7Z" transform="translate(-55.409 20.106)"/><path class="c" d="M240.121,43.22a7.334,7.334,0,0,1,1.921.249,4.678,4.678,0,0,1,1.584.763,3.725,3.725,0,0,1,1.085,1.335,4.151,4.151,0,0,1,.411,1.936,4.048,4.048,0,0,1-.836,2.684,4.62,4.62,0,0,1-2.156,1.467l3.124,5.441a.542.542,0,0,1,0,.22.425.425,0,0,1-.132.323.411.411,0,0,1-.323.147h-.821a.792.792,0,0,1-.616-.22,1.7,1.7,0,0,1-.279-.352l-2.933-5.28h-3.564v5.28a.605.605,0,0,1-.557.572h-.851a.5.5,0,0,1-.4-.176.484.484,0,0,1-.161-.4V43.777a.528.528,0,0,1,.161-.4.543.543,0,0,1,.4-.161Zm-3.593,6.791h3.491a3.9,3.9,0,0,0,2.317-.587,2.215,2.215,0,0,0,.821-1.921,2.083,2.083,0,0,0-.821-1.863,4.136,4.136,0,0,0-2.317-.557h-3.491Z" transform="translate(-50.112 20.171)"/></g></g></svg>