<svg xmlns="http://www.w3.org/2000/svg" xmlns:xlink="http://www.w3.org/1999/xlink" width="752.501" height="625.2" viewBox="0 0 752.501 625.2"><defs><style>.a{fill:#124272;}.b{fill:#f0f0f0;}.c{fill:#002e5d;}.d{fill:#d6d6d6;}.e{fill:#bdbdbd;}.f{fill:#e3ba32;}.g{fill:#fff;}.h{filter:url(#a);}</style><filter id="a" x="0" y="110.401" width="572.969" height="349.701" filterUnits="userSpaceOnUse"><feOffset input="SourceAlpha"/><feGaussianBlur stdDeviation="3" result="b"/><feFlood flood-opacity="0.161"/><feComposite operator="in" in2="b"/><feComposite in="SourceGraphic"/></filter></defs><g transform="translate(2.008)"><g transform="translate(0)"><ellipse class="a" cx="284.476" cy="16.973" rx="284.476" ry="16.973" transform="translate(0 591.254)"/><path class="b" d="M2.48,160v58.22A10.15,10.15,0,0,0,12.6,228.342H547.327a10.15,10.15,0,0,0,10.122-10.122V160Z" transform="translate(4.512 291.102)"/><g class="h" transform="matrix(1, 0, 0, 1, -2.01, 0)"><path class="c" d="M557.449,52.472A10.122,10.122,0,0,0,547.327,42.35H12.6A10.122,10.122,0,0,0,2.48,52.472v321.58H557.449Z" transform="translate(6.52 77.05)"/></g><rect class="d" width="190.901" height="58.615" transform="translate(190.196 519.36)"/><rect class="b" width="280.022" height="27.433" transform="translate(144.325 577.947)"/><rect class="e" width="190.901" height="21.174" transform="translate(190.196 519.36)"/><rect class="f" width="497.707" height="273.086" transform="translate(35.665 148.272)"/><path class="c" d="M135.826,71.59,101.2,106.212,66.553,71.59,52.71,85.433l34.622,34.65L52.71,154.706l13.843,13.843,34.65-34.622,34.622,34.622,13.843-13.843-34.622-34.622,34.622-34.65Z" transform="translate(95.9 130.25)"/><path class="c" d="M211.659,85.433,197.816,71.59l-34.65,34.622L128.543,71.59,114.7,85.433l34.622,34.65L114.7,154.706l13.843,13.843,34.622-34.622,34.65,34.622,13.843-13.843-34.622-34.622Z" transform="translate(208.684 130.25)"/><path class="c" d="M229.106,161.472c-73.3-50.749-147.539-.536-148.3,0L71.22,147.544c.818-.592,84.582-57.177,167.472,0Z" transform="translate(129.577 221.965)"/><path class="g" d="M431.393,0H180.468A11.278,11.278,0,0,0,169.19,11.278V173.336a11.278,11.278,0,0,0,11.278,11.278h29.04L180.919,238.8,277.4,184.614h154a11.278,11.278,0,0,0,11.278-11.278V11.278A11.278,11.278,0,0,0,431.393,0Z" transform="translate(307.822)"/><path class="c" d="M220.719,82.81a2.538,2.538,0,0,1-1.917-.818,2.65,2.65,0,0,1-.818-1.917V67.754H186.464a2.65,2.65,0,0,1-1.945-.789,2.819,2.819,0,0,1-.818-1.945V57.8a4.483,4.483,0,0,1,.677-2.481,27.622,27.622,0,0,1,1.551-2.312l31.013-38.851a5.639,5.639,0,0,1,4.145-2.537h7.753a2.819,2.819,0,0,1,2.819,2.819V54.982h8.74a2.819,2.819,0,0,1,2.819,2.819v7.218a2.743,2.743,0,0,1-2.763,2.735h-8.74V80.075a2.65,2.65,0,0,1-.818,1.917,2.537,2.537,0,0,1-1.917.818ZM217.9,55.039V33.273L200.589,54.982Z" transform="translate(334.221 21.141)"/><path class="c" d="M262.872,38.784v18.1a48.712,48.712,0,0,1-1.8,10.939,22.752,22.752,0,0,1-4.68,8.74,21.455,21.455,0,0,1-8.317,5.808,39.02,39.02,0,0,1-25.177,0,21.343,21.343,0,0,1-8.289-5.808,23.147,23.147,0,0,1-4.68-8.74,47.2,47.2,0,0,1-1.776-10.939c-.141-2.594-.2-5.639-.2-8.8s0-6.231.2-8.8a48.692,48.692,0,0,1,1.776-11.052,23.543,23.543,0,0,1,4.68-8.881,21.963,21.963,0,0,1,8.289-5.949,32.282,32.282,0,0,1,12.6-2.171,33.833,33.833,0,0,1,12.574,2.086,21.145,21.145,0,0,1,8.317,5.808,22.557,22.557,0,0,1,4.68,8.74A48.465,48.465,0,0,1,262.872,38.784ZM221.878,56.377a21.174,21.174,0,0,0,3.5,11.278,14.717,14.717,0,0,0,20.243,0,21.174,21.174,0,0,0,3.524-11.278c0-2.594.2-5.441.2-8.458s0-5.977-.2-8.458a21.258,21.258,0,0,0-3.524-11.278,14.8,14.8,0,0,0-20.243,0,21.258,21.258,0,0,0-3.5,11.278c0,2.566-.226,5.413-.226,8.458s.085,5.977.226,8.571Z" transform="translate(378.342 20.423)"/><path class="c" d="M267.608,82.81a2.594,2.594,0,0,1-1.945-.818,2.65,2.65,0,0,1-.818-1.917V67.754H233.324a2.743,2.743,0,0,1-2.763-2.735V57.8a4.482,4.482,0,0,1,.677-2.481c.451-.733.959-1.494,1.579-2.312L263.83,14.157A5.639,5.639,0,0,1,268,11.62h7.725a2.65,2.65,0,0,1,1.917.818,2.537,2.537,0,0,1,.818,1.917V54.982h8.768a2.65,2.65,0,0,1,1.917.818,2.819,2.819,0,0,1,.818,1.945v7.218a2.819,2.819,0,0,1-.818,1.945,2.622,2.622,0,0,1-1.917.789h-8.768V80.075a2.819,2.819,0,0,1-2.819,2.819Zm-2.819-27.771V33.273L247.449,54.982Z" transform="translate(419.477 21.141)"/><path class="c" d="M209.86,67.495a1.107,1.107,0,0,1,1.071,1.1V70a1.107,1.107,0,0,1-1.071,1.1h-16.1A1.108,1.108,0,0,1,192.69,70V44.291a1.071,1.071,0,0,1,1.071-1.071H209.55a1.015,1.015,0,0,1,.733.31,1.043,1.043,0,0,1,.338.761v1.438a1.043,1.043,0,0,1-.338.761,1.015,1.015,0,0,1-.733.31H196.384v8.458h12.208a1.015,1.015,0,0,1,.733.31,1.043,1.043,0,0,1,.338.761v1.438a1.043,1.043,0,0,1-.338.761,1.015,1.015,0,0,1-.733.31H196.384v8.712Z" transform="translate(350.578 78.634)"/><path class="c" d="M213.174,43.22a14.238,14.238,0,0,1,3.693.479,8.994,8.994,0,0,1,3.045,1.466A7.161,7.161,0,0,1,222,47.731a8.457,8.457,0,0,1,.789,3.722,7.81,7.81,0,0,1-1.635,5.159,8.8,8.8,0,0,1-4.116,2.819l6.005,10.46a1.042,1.042,0,0,1,.141.423.761.761,0,0,1-.282.62.733.733,0,0,1-.592.282h-1.72a1.522,1.522,0,0,1-1.184-.423,3.27,3.27,0,0,1-.536-.677l-5.78-10.15h-6.851v10.15a.93.93,0,0,1-.31.761.959.959,0,0,1-.761.338H203.56a1.156,1.156,0,0,1-1.1-1.1V44.291a1.108,1.108,0,0,1,1.1-1.071Zm-6.936,13.054h6.738a7.556,7.556,0,0,0,4.455-1.128,4.229,4.229,0,0,0,1.551-3.693,3.975,3.975,0,0,0-1.551-3.581,8.007,8.007,0,0,0-4.455-1.071h-6.738Z" transform="translate(368.354 78.634)"/><path class="c" d="M223.766,43.22a13.872,13.872,0,0,1,3.665.479,8.994,8.994,0,0,1,3.045,1.466,7.556,7.556,0,0,1,2.115,2.566,8.458,8.458,0,0,1,.761,3.722,7.782,7.782,0,0,1-1.607,5.244,8.8,8.8,0,0,1-4.116,2.819l6.005,10.46a.958.958,0,0,1,0,.423.817.817,0,0,1-.254.62.761.761,0,0,1-.62.282h-1.72a1.494,1.494,0,0,1-1.156-.423,3.27,3.27,0,0,1-.536-.677l-5.639-10.15h-6.851V70.2a1.108,1.108,0,0,1-1.071,1.1h-1.635a1.108,1.108,0,0,1-1.071-1.1V44.291a1.071,1.071,0,0,1,1.071-1.071ZM216.83,56.274h6.738a7.443,7.443,0,0,0,4.426-1.128,4.257,4.257,0,0,0,1.579-3.693,4,4,0,0,0-1.579-3.581,7.894,7.894,0,0,0-4.427-1.071H216.83Z" transform="translate(387.675 78.634)"/><path class="c" d="M223.383,53.878a12.774,12.774,0,0,1,.761-4.2,10.292,10.292,0,0,1,2.143-3.44,10.15,10.15,0,0,1,3.411-2.312,13.307,13.307,0,0,1,9.332,0,10.149,10.149,0,0,1,3.411,2.312,10.291,10.291,0,0,1,2.143,3.44,12.773,12.773,0,0,1,.761,4.2v7.077a12.942,12.942,0,0,1-.818,4.2,9.782,9.782,0,0,1-2.115,3.44A10.007,10.007,0,0,1,239,70.907a13.139,13.139,0,0,1-9.276,0,9.7,9.7,0,0,1-5.639-5.639,12.941,12.941,0,0,1-.818-4.2C223.3,58.586,223.3,56.218,223.383,53.878Zm18.185.2a10.068,10.068,0,0,0-.62-3.27,6.314,6.314,0,0,0-1.522-2.312,5.949,5.949,0,0,0-2.256-1.381,9.134,9.134,0,0,0-5.639,0,5.949,5.949,0,0,0-2.256,1.382,6.372,6.372,0,0,0-1.522,2.312,9.415,9.415,0,0,0-.592,3.27c0,1.184,0,2.312,0,3.327v3.355a9.531,9.531,0,0,0,.592,3.27,6.371,6.371,0,0,0,1.523,2.312,5.893,5.893,0,0,0,2.255,1.353,8.627,8.627,0,0,0,5.639,0,5.893,5.893,0,0,0,2.256-1.353,6.316,6.316,0,0,0,1.494-2.312,10.232,10.232,0,0,0,.62-3.27V57.4c0-1.043.085-2.143.028-3.27Z" transform="translate(406.215 78.38)"/><path class="c" d="M245.194,43.22a14.1,14.1,0,0,1,3.693.479,8.994,8.994,0,0,1,3.045,1.466,7.161,7.161,0,0,1,2.086,2.566,7.979,7.979,0,0,1,.789,3.722,7.781,7.781,0,0,1-1.607,5.16,8.882,8.882,0,0,1-4.145,2.819l6.005,10.46a1.042,1.042,0,0,1,0,.423.818.818,0,0,1-.254.62.79.79,0,0,1-.62.282h-1.579a1.522,1.522,0,0,1-1.184-.423,3.269,3.269,0,0,1-.536-.677l-5.639-10.15H238.4v10.15a1.164,1.164,0,0,1-1.071,1.1h-1.635a.959.959,0,0,1-.761-.338.93.93,0,0,1-.31-.761V44.291a1.015,1.015,0,0,1,.31-.761,1.043,1.043,0,0,1,.761-.31Zm-6.908,13.054H245a7.5,7.5,0,0,0,4.455-1.128,4.257,4.257,0,0,0,1.579-3.693,4,4,0,0,0-1.579-3.581A7.95,7.95,0,0,0,245,46.8h-6.71Z" transform="translate(426.864 78.634)"/></g></g></svg>