<svg xmlns="http://www.w3.org/2000/svg" width="28" height="26.037" viewBox="0 0 28 26.037"><defs><style>.a{fill:#e3ba32;}</style></defs><path class="a" d="M97.661,70.386v-.568a1.5,1.5,0,0,0,.523-.288,1.281,1.281,0,0,0,.46-.968V68.49a1.3,1.3,0,0,0-.619-1.086l-1.179-.757a.321.321,0,0,1-.167-.26v-.072a.3.3,0,0,1,.116-.222.58.58,0,0,1,.375-.128h0a.58.58,0,0,1,.375.128.3.3,0,0,1,.116.222.491.491,0,0,0,.983,0,1.281,1.281,0,0,0-.46-.968,1.5,1.5,0,0,0-.523-.288v-.568a.491.491,0,1,0-.982,0v.568a1.5,1.5,0,0,0-.523.288,1.281,1.281,0,0,0-.46.968v.072a1.3,1.3,0,0,0,.619,1.086l1.179.757a.321.321,0,0,1,.167.26v.072a.3.3,0,0,1-.116.222.58.58,0,0,1-.375.128h0a.58.58,0,0,1-.375-.128.3.3,0,0,1-.116-.222.491.491,0,0,0-.983,0,1.281,1.281,0,0,0,.46.968,1.5,1.5,0,0,0,.523.288v.568a.491.491,0,0,0,.983,0Z" transform="translate(-91.276 -62.526)"/><path class="a" d="M75.278,339.583l-.484.484a.369.369,0,0,1-.465.046l-.3-.2a1.339,1.339,0,0,0-.368-.17v-.3h.491a.491.491,0,1,0,0-.982h-.491v-.983a.491.491,0,1,1,.982,0,.491.491,0,0,0,.983,0,1.474,1.474,0,0,0-2.948,0v.983h-.491a.491.491,0,1,0,0,.982h.491v.389a1.341,1.341,0,0,0-.354.253l-.484.484a.491.491,0,0,0,.695.695l.484-.484a.369.369,0,0,1,.465-.046l.3.2a1.355,1.355,0,0,0,1.7-.169l.484-.484a.491.491,0,1,0-.695-.695Z" transform="translate(-68.75 -317.823)"/><path class="a" d="M353.693,337.658h-.5a.491.491,0,0,0,0,.983h.368v.614h-.368a.491.491,0,0,0,0,.983h.5a2.46,2.46,0,0,0,2.322,1.658.491.491,0,0,0,0-.983,1.474,1.474,0,0,1-1.238-.675h.624a.491.491,0,0,0,0-.983h-.86v-.614h.86a.491.491,0,0,0,0-.983h-.624a1.474,1.474,0,0,1,1.238-.675.491.491,0,1,0,0-.982A2.46,2.46,0,0,0,353.693,337.658Z" transform="translate(-332.499 -317.823)"/><path class="a" d="M355.769,80.144l-1.617,1.618-1.618-1.618a.491.491,0,1,0-.695.695l1.126,1.126h-.287a.491.491,0,0,0,0,.983h.983v.491h-.983a.491.491,0,0,0,0,.983h.983v.491a.491.491,0,1,0,.982,0v-.491h.983a.491.491,0,0,0,0-.983h-.983v-.491h.983a.491.491,0,0,0,0-.983h-.288l1.126-1.126a.491.491,0,0,0-.695-.695Z" transform="translate(-331.555 -77.543)"/><path class="a" d="M51.2,54.241h.018a.491.491,0,0,0,.491-.473c.006-.168.009-.339.009-.509a13.629,13.629,0,0,0-1.25-5.734,4.911,4.911,0,1,0-9-3.446,9.859,9.859,0,0,0-7.02,0,4.871,4.871,0,0,0-.264-.951,10.745,10.745,0,0,1,3.774-.677.491.491,0,0,0,0-.983,11.719,11.719,0,0,0-4.224.78,4.911,4.911,0,1,0-4.956,7.5,9.864,9.864,0,0,0-.2,6.458,4.884,4.884,0,0,0-2.8.91,12.754,12.754,0,0,1-.594-3.859.491.491,0,0,0-.983,0,13.718,13.718,0,0,0,.778,4.569,4.911,4.911,0,1,0,8.476,4.166,9.837,9.837,0,0,0,8.554.216,4.872,4.872,0,0,0,.316.936,10.7,10.7,0,0,1-4.369.92.491.491,0,1,0,0,.982A11.678,11.678,0,0,0,42.833,64a4.911,4.911,0,1,0,4.5-7.765,9.86,9.86,0,0,0-.187-6.486,4.9,4.9,0,0,0,2.633-1.359,12.661,12.661,0,0,1,.96,4.868c0,.158,0,.317-.009.473A.491.491,0,0,0,51.2,54.241Zm-5.091-4.426a8.738,8.738,0,0,1,.683,2.952H41.4a27.463,27.463,0,0,0-.264-3.439h3.041a4.878,4.878,0,0,0,1.935.486ZM44.668,56.7H41.2a28.037,28.037,0,0,0,.2-2.948h5.394a8.784,8.784,0,0,1-.5,2.483,4.873,4.873,0,0,0-1.627.464Zm-6.7,5.4c-.416,0-1.059-.628-1.616-2.39a15.857,15.857,0,0,1-.483-2.031h4.2a15.857,15.857,0,0,1-.483,2.031C39.025,61.473,38.382,62.1,37.966,62.1Zm-5.83-4.421h2.735a17.106,17.106,0,0,0,.542,2.327,7.906,7.906,0,0,0,.862,1.931,8.8,8.8,0,0,1-2.735-1.024,4.9,4.9,0,0,0-1.4-3.234Zm-.382-8.351H34.8a27.462,27.462,0,0,0-.264,3.439H29.137a8.748,8.748,0,0,1,.682-2.953,4.878,4.878,0,0,0,1.935-.486Zm2.768-4.216a8.726,8.726,0,0,1,1.755-.536,7.9,7.9,0,0,0-.864,1.934,16.253,16.253,0,0,0-.455,1.836h-1.84a4.9,4.9,0,0,0,1.4-3.234Zm5.06,1.694a14.976,14.976,0,0,1,.39,1.54H35.96a14.992,14.992,0,0,1,.39-1.54c.557-1.762,1.2-2.39,1.616-2.39s1.059.628,1.615,2.39Zm.562,2.522a26.285,26.285,0,0,1,.273,3.439h-4.9a26.274,26.274,0,0,1,.273-3.439ZM29.667,56.317a8.784,8.784,0,0,1-.53-2.567h5.394a28.038,28.038,0,0,0,.2,2.948H30.773a4.874,4.874,0,0,0-1.106-.381Zm6.052.381a26.9,26.9,0,0,1-.205-2.948h4.9a26.932,26.932,0,0,1-.205,2.948Zm5.254-8.351a16.266,16.266,0,0,0-.455-1.835,7.9,7.9,0,0,0-.863-1.934,8.742,8.742,0,0,1,1.755.535,4.9,4.9,0,0,0,1.4,3.234ZM25.685,44.908a3.93,3.93,0,1,1,3.93,3.93A3.93,3.93,0,0,1,25.685,44.908Zm2.948,20.141a3.93,3.93,0,1,1,3.93-3.93A3.93,3.93,0,0,1,28.632,65.049Zm11.022-3.108a7.9,7.9,0,0,0,.864-1.934,17.106,17.106,0,0,0,.542-2.327H43.3A4.9,4.9,0,0,0,41.9,61.119c0,.021,0,.041,0,.061A8.716,8.716,0,0,1,39.655,61.941Zm11.084-.822a3.93,3.93,0,1,1-3.93-3.93A3.93,3.93,0,0,1,50.739,61.119ZM46.317,48.838a3.93,3.93,0,1,1,3.93-3.93A3.93,3.93,0,0,1,46.317,48.838Z" transform="translate(-23.721 -39.995)"/></svg>