<svg xmlns="http://www.w3.org/2000/svg" xmlns:xlink="http://www.w3.org/1999/xlink" width="18px" height="18px" viewBox="0 0 18 18"><defs><linearGradient id="a" x1="9.91" y1="8.44" x2="12.82" y2="8.44" gradientUnits="userSpaceOnUse"><stop offset=".01" stop-color="#1b1464"/><stop offset="1"/></linearGradient><linearGradient id="b" x1="9.91" y1="4.3" x2="12.81" y2="4.3" xlink:href="#a"/><linearGradient id="c" x1="0" y1="8.42" x2="2.77" y2="8.42" xlink:href="#a"/><linearGradient id="d" x1="0" y1="4.31" x2="2.77" y2="4.31" xlink:href="#a"/><linearGradient id="e" x1="3.13" y1="7.99" x2="5.97" y2="7.99" xlink:href="#a"/><linearGradient id="f" x1="3.13" y1="4.74" x2="5.97" y2="4.74" xlink:href="#a"/><linearGradient id="g" x1="6.7" y1="7.98" x2="9.55" y2="7.98" xlink:href="#a"/><linearGradient id="h" x1="6.71" y1="4.76" x2="9.55" y2="4.76" xlink:href="#a"/><linearGradient id="i" x1="6.7" y1="11.18" x2="9" y2="11.18" xlink:href="#a"/><linearGradient id="j" x1="6.71" y1="1.55" x2="9" y2="1.55" xlink:href="#a"/><linearGradient id="k" x1="3.69" y1="11.19" x2="5.97" y2="11.19" xlink:href="#a"/><linearGradient id="l" x1="3.69" y1="1.55" x2="5.97" y2="1.55" xlink:href="#a"/><linearGradient id="m" x1="8.4" y1="11.29" x2="11.13" y2="11.29" xlink:href="#a"/><linearGradient id="n" x1="8.42" y1="1.46" x2="11.13" y2="1.46" xlink:href="#a"/><linearGradient id="o" x1="1.69" y1="11.27" x2="4.21" y2="11.27" xlink:href="#a"/><linearGradient id="p" x1="1.69" y1="1.46" x2="4.22" y2="1.46" xlink:href="#a"/></defs><g data-name="Layer 2"><g data-name="Layer 1"><path d="M10.29 6.74h2.53a6.35 6.35 0 0 1-1.22 3.4 8.46 8.46 0 0 0-1.69-.73 12.11 12.11 0 0 0 .38-2.67Z" style="fill:url(#a)"/><path d="M11.6 2.6A6.38 6.38 0 0 1 12.81 6h-2.53a11.53 11.53 0 0 0-.37-2.67 8.71 8.71 0 0 0 1.69-.73Z" style="fill:url(#b)"/><path d="M0 6.73h2.39a12 12 0 0 0 .38 2.69l-1.57.69A6.4 6.4 0 0 1 0 6.73Z" style="fill:url(#c)"/><path d="m1.2 2.62 1.57.69A12 12 0 0 0 2.39 6H0a6.37 6.37 0 0 1 1.2-3.38Z" style="fill:url(#d)"/><path d="M3.13 6.74H6v2.17a11.84 11.84 0 0 0-2.5.34 11.23 11.23 0 0 1-.37-2.51Z" style="fill:url(#e)"/><path d="M6 6H3.13a11.23 11.23 0 0 1 .34-2.51A12.53 12.53 0 0 0 6 3.83Z" style="fill:url(#f)"/><path d="M9.55 6.74a11 11 0 0 1-.34 2.48 12.49 12.49 0 0 0-2.51-.31V6.74Z" style="fill:url(#g)"/><path d="M6.71 6V3.83a12.48 12.48 0 0 0 2.5-.31A10.82 10.82 0 0 1 9.55 6Z" style="fill:url(#h)"/><path d="M6.7 9.64a11.12 11.12 0 0 1 2.3.27 4.7 4.7 0 0 1-.17.45 5.56 5.56 0 0 1-1 1.65 2.43 2.43 0 0 1-1 .7h-.06Z" style="fill:url(#i)"/><path d="M9 2.82a11.12 11.12 0 0 1-2.29.28V0a1.76 1.76 0 0 1 .62.29 3.8 3.8 0 0 1 1.11 1.28A6.71 6.71 0 0 1 9 2.82Z" style="fill:url(#j)"/><path d="M6 12.74a1.78 1.78 0 0 1-.56-.25 3.79 3.79 0 0 1-1.07-1.15A7.17 7.17 0 0 1 3.7 10 9.59 9.59 0 0 1 6 9.65Z" style="fill:url(#k)"/><path d="M6 3.09a10.51 10.51 0 0 1-2.28-.31c0-.11.08-.23.13-.34a5.46 5.46 0 0 1 1-1.7 2.54 2.54 0 0 1 1-.69H6Z" style="fill:url(#l)"/><path d="M9.7 10.11a6.93 6.93 0 0 1 1.43.6 6.33 6.33 0 0 1-2.73 1.76 6.85 6.85 0 0 0 1.3-2.36Z" style="fill:url(#m)"/><path d="M11.13 2a7.65 7.65 0 0 1-1.42.6A7 7 0 0 0 8.42.29 6.28 6.28 0 0 1 11.13 2Z" style="fill:url(#n)"/><path d="M4.21 12.39a6.36 6.36 0 0 1-2.52-1.68A6.71 6.71 0 0 1 3 10.15a7 7 0 0 0 1.21 2.24Z" style="fill:url(#o)"/><path d="M4.22.33A7 7 0 0 0 3 2.59 7.74 7.74 0 0 1 1.69 2 6.47 6.47 0 0 1 4.22.33Z" style="fill:url(#p)"/></g></g></svg>
