<svg xmlns="http://www.w3.org/2000/svg" width="14.4" height="16.032" viewBox="0 0 14.4 16.032"><defs><style>.a{fill:none;}.a,.b,.c{stroke:#002e5d;stroke-linecap:round;stroke-linejoin:round;}.b{fill:#002e5d;}.c,.d{fill:#e3ba32;}</style></defs><g transform="translate(0.5 0.5)"><g transform="translate(0 0)"><rect class="a" width="13.4" height="9.043" transform="translate(0 5.989)"/><path class="b" d="M10.549,3.495,7.2.5,3.851,3.495.5,6.489,3.851,9.48,7.2,12.475,10.549,9.48,13.9,6.489Z" transform="translate(-0.5 -0.5)"/><path class="c" d="M7.2,26.38l3.347,2.995L13.9,32.369H.5l3.351-2.995Z" transform="translate(-0.5 -17.337)"/><path class="d" d="M15.82,9.5a2.509,2.509,0,0,1,1.013.95,2.638,2.638,0,0,1,.349,1.377,2.145,2.145,0,0,1-.314,1.237,1,1,0,0,1-.86.447.853.853,0,0,1-.493-.136.72.72,0,0,1-.28-.391,1.247,1.247,0,0,1-1.1.528,1.464,1.464,0,0,1-.734-.2,1.4,1.4,0,0,1-.524-.552,1.684,1.684,0,0,1-.189-.8,1.656,1.656,0,0,1,.189-.8,1.4,1.4,0,0,1,.524-.545,1.433,1.433,0,0,1,.748-.2,1.551,1.551,0,0,1,.584.1,1.136,1.136,0,0,1,.433.325v-.381h.674v2.069a.451.451,0,0,0,.091.314.287.287,0,0,0,.227.1.412.412,0,0,0,.381-.283,2.013,2.013,0,0,0,.129-.818A2.187,2.187,0,0,0,16.38,10.7a2.006,2.006,0,0,0-.825-.765,2.792,2.792,0,0,0-2.449.014,2.016,2.016,0,0,0-.825.807,2.341,2.341,0,0,0-.3,1.174,2.366,2.366,0,0,0,.29,1.188,2.02,2.02,0,0,0,.818.807,2.5,2.5,0,0,0,1.216.29,2.823,2.823,0,0,0,.608-.07,2.418,2.418,0,0,0,.573-.2l.164.486a2.331,2.331,0,0,1-.629.213,3.585,3.585,0,0,1-.716.073,3.068,3.068,0,0,1-1.506-.349,2.551,2.551,0,0,1-1.017-.992,2.827,2.827,0,0,1-.349-1.436,2.8,2.8,0,0,1,.349-1.422A2.617,2.617,0,0,1,12.8,9.526a3.145,3.145,0,0,1,1.516-.349A3.145,3.145,0,0,1,15.82,9.5Zm-.888,3.145a.961.961,0,0,0,.255-.7.907.907,0,0,0-1.555-.7.964.964,0,0,0-.248.7.975.975,0,0,0,.248.7A.94.94,0,0,0,14.933,12.643Z" transform="translate(-7.609 -6.143)"/></g></g></svg>