<svg xmlns="http://www.w3.org/2000/svg" xmlns:xlink="http://www.w3.org/1999/xlink" width="18px" height="18px" viewBox="0 0 18 18"><defs><linearGradient id="a" y1="10.04" x2="7.53" y2="10.04" gradientUnits="userSpaceOnUse"><stop offset=".01" stop-color="#1b1464"/><stop offset="1"/></linearGradient><linearGradient id="b" x1="10.34" y1="4.68" x2="17.4" y2="4.68" xlink:href="#a"/><linearGradient id="c" x1="1.69" y1="2.79" x2="11.46" y2="2.79" xlink:href="#a"/><linearGradient id="d" x1="6.63" y1="13.49" x2="15.85" y2="13.49" xlink:href="#a"/></defs><g data-name="Layer 2"><g data-name="Layer 1"><g data-name="478Itg"><path d="m1.43 9.09 1-.25a7.51 7.51 0 0 0 1.17 2.31 8 8 0 0 0 1.68-2.83H0v-.87s.13-.1.2-.1h3.1V6.24h.94v1.11h3.29v1h-1a.29.29 0 0 0-.22.12 11.45 11.45 0 0 1-2 3.42s0 0 0 .08c.23.18.47.37.73.54s.53.29.82.45l-.34.9a5.34 5.34 0 0 1-1.77-1.08c-.15-.12-.24-.13-.39 0a4.65 4.65 0 0 1-2.19.93H.76v-1a4 4 0 0 0 2.17-.86 8.33 8.33 0 0 1-1.5-2.76Z" style="fill:url(#a)"/><path d="M17.4 8.44h-1a.32.32 0 0 1-.19-.17c-.31-.73-.61-1.48-.91-2.22a.24.24 0 0 0-.3-.19h-2.23a.27.27 0 0 0-.3.2c-.29.74-.59 1.46-.88 2.2a.26.26 0 0 1-.29.19h-1c0-.07 0-.13.06-.18q1.44-3.55 2.87-7.12a.27.27 0 0 1 .31-.2c.26 0 .57-.08.76 0s.22.43.32.66c.89 2.2 1.77 4.39 2.66 6.58a1.77 1.77 0 0 1 .12.25Zm-2.64-3.62-.89-2.2-.87 2.2Z" style="fill:url(#b)"/><path d="m2.57 5.59-.88-.43a7.64 7.64 0 0 1 3.19-3.39A7.51 7.51 0 0 1 9.41.82L9.56 0l1.9 1.87-2.36.77.14-.85a6.82 6.82 0 0 0-6.67 3.8Z" style="fill:url(#c)"/><path d="m14.9 10.16.95.29a7.61 7.61 0 0 1-2.65 3.83 7.5 7.5 0 0 1-4.35 1.6v.95l-2.22-1.66L8.89 14v.83a6.67 6.67 0 0 0 3.74-1.41 6.84 6.84 0 0 0 2.27-3.26Z" style="fill:url(#d)"/></g></g></g></svg>
