<svg xmlns="http://www.w3.org/2000/svg" width="18" height="18" viewBox="0 0 29.385 24.563"><defs><style>.a{fill:#e3ba32;}</style></defs><g transform="translate(0 0)"><path class="a" d="M97.864,58.828a.491.491,0,0,0-.178-.355,10.74,10.74,0,0,0-5.8-2.419c-.353-.035-.712-.053-1.071-.053H90.8c-.359,0-.718.018-1.071.053a10.76,10.76,0,0,0-7.954,4.818l0,.005h0a10.81,10.81,0,0,0,.7,12.81.491.491,0,0,0,.355.178h.023a.491.491,0,0,0,.347-.144L97.721,59.2A.491.491,0,0,0,97.864,58.828Zm-8.651,7.488H86.2a14.454,14.454,0,0,1,.609-3.7,31.191,31.191,0,0,0,3.509.255v2.341Zm-8.218,0a9.769,9.769,0,0,1,1.4-4.6,31.028,31.028,0,0,0,3.424.756,15.439,15.439,0,0,0-.609,3.841Zm9.014-9.3c.1-.008.2-.015.307-.02v4.9a30.22,30.22,0,0,1-3.185-.222,14.32,14.32,0,0,1,2.879-4.654ZM88.231,67.3,86.38,69.15A14.565,14.565,0,0,1,86.2,67.3ZM91.3,62.873q.706-.011,1.414-.055L91.3,64.232Zm2.485-1.127c-.822.082-1.655.13-2.485.144v-4.9c.1.005.2.012.307.02a14.375,14.375,0,0,1,2.7,4.208Zm-5.267-4.5a15.253,15.253,0,0,0-2.383,4.278,30.086,30.086,0,0,1-3.148-.667A9.77,9.77,0,0,1,88.516,57.251ZM82.9,72.634a9.844,9.844,0,0,1-1.9-5.336h4.22a15.517,15.517,0,0,0,.323,2.693ZM95.054,60.476A15.311,15.311,0,0,0,93.1,57.25,9.751,9.751,0,0,1,96.634,58.9Z" transform="translate(-76.069 -56)"/><path class="a" d="M157.151,118.189a10.841,10.841,0,0,0-.7-.95.491.491,0,0,0-.726-.035L141.2,131.728a.491.491,0,0,0,.034.726,10.74,10.74,0,0,0,5.8,2.419,11,11,0,0,0,2.062.009v2.5a.491.491,0,0,0,.852.333l4.406-4.773a10.81,10.81,0,0,0,2.8-14.754Zm-3.4,13.98a.494.494,0,0,0-.079.069l-3.589,3.888v-1.8a.491.491,0,0,0-.561-.486c-.149.021-.287.038-.423.052a9.981,9.981,0,0,1-1.964,0,9.754,9.754,0,0,1-4.845-1.865l13.738-13.738q.159.215.3.436A9.827,9.827,0,0,1,153.748,132.169Z" transform="translate(-133.377 -113.311)"/><circle class="a" cx="1" cy="1" r="1" transform="translate(14.189 14.898)"/><ellipse class="a" cx="0.5" cy="1" rx="0.5" ry="1" transform="translate(17.189 14.898)"/><circle class="a" cx="1" cy="1" r="1" transform="translate(19.189 14.898)"/><path class="a" d="M19.926,87.084a.491.491,0,0,0-.548.427l-.042.332a12.774,12.774,0,0,1,1.427-16.469.491.491,0,0,0-.691-.7,13.755,13.755,0,0,0-1.562,17.7l-.415-.061a.491.491,0,0,0-.144.972l1.658.246a.491.491,0,0,0,.559-.425l.184-1.474A.491.491,0,0,0,19.926,87.084Z" transform="translate(-15.997 -69.641)"/><path class="a" d="M418.366,80.983a.491.491,0,0,0,0-.983h-1.474a.491.491,0,0,0-.491.491v1.474a.491.491,0,1,0,.982,0V81.8a12.773,12.773,0,0,1-1.242,16.519.491.491,0,1,0,.7.691A13.755,13.755,0,0,0,418,80.983Z" transform="translate(-391.437 -78.526)"/></g></svg>
