<svg xmlns="http://www.w3.org/2000/svg" width="16.537" height="15.528" viewBox="0 0 16.537 15.528"><defs><style>.a{fill:#1f2b50;}.b{fill:#e3ba32;}.c{fill:none;stroke:#002e5d;stroke-linecap:round;stroke-linejoin:round;}</style></defs><g transform="translate(0.5)"><g transform="translate(0)"><rect class="a" width="7.927" height="15.528" rx="1.28" transform="translate(3.808)"/><rect class="b" width="6.768" height="12.503" rx="1.28" transform="translate(4.39 1.238)"/><path class="c" d="M36.49,14.18a2.931,2.931,0,0,1,.137,4.562" transform="translate(-23.499 -9.062)"/><path class="c" d="M38.65,10.9a4.454,4.454,0,0,1,.213,6.93" transform="translate(-24.879 -6.966)"/><path class="c" d="M5.494,14.18a2.931,2.931,0,0,0-.137,4.562" transform="translate(-2.949 -9.062)"/><path class="c" d="M2.265,10.9a4.454,4.454,0,0,0-.213,6.93" transform="translate(-0.499 -6.966)"/><path class="b" d="M20.529,1.546h-3.3a.13.13,0,0,1-.13-.13h0a.13.13,0,0,1,.13-.126h3.3a.13.13,0,0,1,.13.126h0A.13.13,0,0,1,20.529,1.546Z" transform="translate(-11.108 -0.824)"/><path class="b" d="M21.666,39.752a.469.469,0,1,1-.141-.339A.473.473,0,0,1,21.666,39.752Z" transform="translate(-13.421 -25.101)"/></g></g></svg>
