<svg xmlns="http://www.w3.org/2000/svg" width="36.004" height="36.004" viewBox="0 0 36.004 36.004"><defs><style>.a{fill:#002e5d;}</style></defs><g transform="translate(0 0)"><g transform="translate(0 0)"><path class="a" d="M128,109.124a.818.818,0,0,0,1.637,0,.818.818,0,1,1,.818.818.818.818,0,0,0,0,1.637.818.818,0,1,1-.818.818.818.818,0,0,0-1.637,0,2.455,2.455,0,1,0,4.283-1.637A2.454,2.454,0,1,0,128,109.124Z" transform="translate(-118.181 -98.486)"/><path class="a" d="M279.789,114.85a2.457,2.457,0,0,0,2.455-2.455v-3.273a2.455,2.455,0,1,0-4.91,0v3.273A2.457,2.457,0,0,0,279.789,114.85Zm-.818-5.728a.818.818,0,1,1,1.637,0v3.273a.818.818,0,1,1-1.637,0Z" transform="translate(-256.059 -98.484)"/><path class="a" d="M205.122,114.85a2.455,2.455,0,0,0,0-4.91,2.42,2.42,0,0,0-.718.12,2.2,2.2,0,0,1,2.354-1.756.818.818,0,0,0,0-1.637,3.945,3.945,0,0,0-4.091,4.091v1.637A2.457,2.457,0,0,0,205.122,114.85Zm0-3.273a.818.818,0,1,1-.818.818A.819.819,0,0,1,205.122,111.577Z" transform="translate(-187.12 -98.484)"/><circle class="a" cx="1.637" cy="1.637" r="1.637" transform="translate(26.185 6.546)"/><path class="a" d="M34.365,25.362a.818.818,0,0,0-1.272-.681l-.574.383C31.1,22.909,29.608,21,28.77,19.975A.818.818,0,1,0,27.5,21.009a60.332,60.332,0,0,1,3.669,4.953l-.534.356a.818.818,0,0,0,.062,1.4l2.237,1.224c1.517,2.926,1.671,4.643,1.16,5.154-.58.579-2.71.379-6.8-2.088a60.3,60.3,0,0,1-8.059-6c1.158-1.047,2.319-2.15,3.469-3.3A77.834,77.834,0,0,0,32.53,10.939l.563.376a.818.818,0,0,0,1.272-.681V7.855c1.827-3.478,2.131-5.869.889-7.111-2.435-2.433-8.868,1.663-12.487,4.321a.818.818,0,0,0,.968,1.318C29.614,2.066,33.23,1.032,34.1,1.9c.5.5.41,2.137-1.167,5.159L30.7,8.28a.818.818,0,0,0-.062,1.4l.529.353a76.1,76.1,0,0,1-9.617,11.515c-1.177,1.177-2.365,2.3-3.548,3.365-1.183-1.066-2.371-2.189-3.549-3.366A76.085,76.085,0,0,1,4.837,10.031l.53-.353a.818.818,0,0,0-.062-1.4L3.073,7.059C1.5,4.038,1.411,2.4,1.907,1.9c.871-.869,4.486.166,10.37,4.489a.818.818,0,1,0,.968-1.318C9.623,2.409,3.182-1.692.75.744-.493,1.986-.188,4.378,1.64,7.857v2.776a.818.818,0,0,0,1.272.681l.563-.375A77.824,77.824,0,0,0,13.3,22.7c1.15,1.151,2.312,2.254,3.471,3.3a60.315,60.315,0,0,1-8.06,6c-4.094,2.468-6.224,2.664-6.8,2.088-.511-.511-.357-2.228,1.161-5.156l2.236-1.222a.819.819,0,0,0,.062-1.4l-.533-.355a60.2,60.2,0,0,1,3.647-4.926A.818.818,0,1,0,7.212,20c-.832,1.021-2.318,2.919-3.726,5.062l-.574-.383a.818.818,0,0,0-1.272.681V28.18c-1.5,2.862-2.308,5.653-.889,7.072A2.786,2.786,0,0,0,2.812,36c1.62,0,3.875-.867,6.741-2.6A62.547,62.547,0,0,0,18,27.095a62.564,62.564,0,0,0,8.449,6.312c2.866,1.729,5.121,2.6,6.742,2.6a2.785,2.785,0,0,0,2.061-.752c1.419-1.419.607-4.209-.889-7.071V25.362Z" transform="translate(0 0)"/></g></g></svg>