<svg xmlns="http://www.w3.org/2000/svg" width="40.059" height="38.995" viewBox="0 0 40.059 38.995"><defs><style>.a{fill:#e3ba32;}</style></defs><g transform="translate(0 -6.796)"><path class="a" d="M77.5,21.216,74.853,25.27a.82.82,0,0,0,.687,1.267h0l1.89,0a.942.942,0,0,0,.561-.188l3.876-2.918,5.477.939.015,0a1.975,1.975,0,0,0,.28.02l2.124,0L83.84,34.417a.8.8,0,0,0,.687,1.2h0l3.359,0a1.179,1.179,0,0,0,.824-.335l2.982-2.894a.586.586,0,0,0-.816-.841l-2.982,2.894a.013.013,0,0,1-.009,0l-2.7,0,5.944-10.065,7.146-.011L92.864,29.62a.586.586,0,1,0,.816.841l6.277-6.091,2.972,0a3.887,3.887,0,0,0,1.467-.289l2.885-1.177a1.87,1.87,0,0,0-.006-3.465l-2.889-1.167a3.885,3.885,0,0,0-1.461-.284h-.007l-3.021.005L88.711,7.133a1.179,1.179,0,0,0-.824-.335l-3.359,0h0A.8.8,0,0,0,83.84,8l5.909,10-2.119,0a1.939,1.939,0,0,0-.28.021l-.014,0-5.474.958-3.886-2.9a.943.943,0,0,0-.561-.186h0l-1.89,0a.82.82,0,0,0-.683,1.27Zm-.16-4.146L81.2,19.957a1.058,1.058,0,0,0,.813.194l5.516-.965a.754.754,0,0,1,.1-.007l7.827-.012a.586.586,0,0,0,0-1.172h0L91.108,18,85.182,7.968l2.7,0a.013.013,0,0,1,.009,0L98.25,18.023a.586.586,0,0,0,.19,1.14h0l4.478-.008h0a2.719,2.719,0,0,1,1.023.2l2.889,1.167a.7.7,0,0,1,0,1.294l-2.885,1.177a2.721,2.721,0,0,1-1.027.2l-15.289.024h0a.751.751,0,0,1-.1-.007l-5.519-.946a1.057,1.057,0,0,0-.812.2l-3.854,2.9-1.16,0,2.329-3.573a1.054,1.054,0,0,0,0-1.155l-2.341-3.565Z" transform="translate(-68.859 0)"/><circle class="a" cx="0.753" cy="0.753" r="0.753" transform="translate(20.244 20.483) rotate(-5.853)"/><ellipse class="a" cx="0.753" cy="0.753" rx="0.753" ry="0.753" transform="translate(22.914 21.642) rotate(-72.543)"/><ellipse class="a" cx="0.753" cy="0.753" rx="0.753" ry="0.753" transform="translate(25.524 21.148) rotate(-45)"/><path class="a" d="M366.664,182.075a.753.753,0,1,0-.754-.753A.753.753,0,0,0,366.664,182.075Z" transform="translate(-337.281 -160.176)"/><path class="a" d="M38.692,295.192H11.466v-2.55h.349a.586.586,0,1,0,0-1.172h-.349v-2.55h.349a.586.586,0,0,0,0-1.172h-.349v-.689a.974.974,0,0,0-.6-.9L8,284.964a1.768,1.768,0,0,0-1.354,0l-2.864,1.2a.974.974,0,0,0-.6.9v.689H2.871a.586.586,0,0,0,0,1.172h.314v2.55H2.871a.586.586,0,0,0,0,1.172h.314v2.55H1.367A1.369,1.369,0,0,0,0,296.559V300.7a1.369,1.369,0,0,0,1.367,1.367H3.31a.586.586,0,1,0,0-1.172H1.367a.2.2,0,0,1-.2-.2v-4.145a.2.2,0,0,1,.2-.2H38.692a.2.2,0,0,1,.2.2V300.7a.2.2,0,0,1-.2.2H35.449v-2.261a.978.978,0,0,0-.976-.976h-14.9a.978.978,0,0,0-.976.976V300.9H6.386a.586.586,0,1,0,0,1.172H38.692a1.369,1.369,0,0,0,1.367-1.367v-4.145A1.368,1.368,0,0,0,38.692,295.192Zm-28.4-3.721H4.356v-2.55h5.938ZM7.1,286.045a.59.59,0,0,1,.451,0l2.743,1.145v.559H4.356v-.559Zm-2.743,6.6h5.938v2.55H4.356ZM27.6,298.834h2.948V300.9H27.6ZM26.426,300.9H23.458v-2.066h2.969Zm-6.658-2.066h2.517V300.9H19.769ZM31.717,300.9v-2.066h2.56V300.9Z" transform="translate(0 -256.28)"/></g></svg>