<svg xmlns="http://www.w3.org/2000/svg" width="35.316" height="35.316" viewBox="0 0 35.316 35.316"><defs><style>.a{fill:#002e5d;}</style></defs><path class="a" d="M1.44,12V1.44H12.418l4.04,3.071H9.725L16.795,12l-4.377,4.025L5.279,9.31v6.732ZM25.817,1.44H36.756v10.6l-3.071,4.039V9.349l-7.68,7.069L21.887,12.23,28.51,5.279H21.778ZM36.756,25.817V36.756H25.778l-4.04-3.071h6.732L21.4,26.006l4.377-4.118,7.139,6.623V21.778ZM12.379,36.756H1.44V25.778l3.071-4.04v6.732l7.68-7.069,4.118,4.377L9.686,32.918h6.732Z" transform="translate(-1.44 -1.44)"/></svg>