<svg xmlns="http://www.w3.org/2000/svg" width="29.991" height="30.001" viewBox="0 0 29.991 30.001"><defs><style>.a{fill:#e3ba32;}</style></defs><path class="a" d="M219.725,331.194a.586.586,0,1,0-.829,0A.587.587,0,0,0,219.725,331.194Zm0,0" transform="translate(-205.938 -310.846)"/><path class="a" d="M188.449,6.444A6.444,6.444,0,1,0,194.893,0,6.451,6.451,0,0,0,188.449,6.444Zm11.716,0a5.272,5.272,0,1,1-5.272-5.272A5.278,5.278,0,0,1,200.165,6.444Zm0,0" transform="translate(-177.436)"/><path class="a" d="M7.248,229.705a.586.586,0,0,0,.827,0l2.84-2.8a1.77,1.77,0,0,0,.417-1.818l.611-.589a1.747,1.747,0,0,1,1.22-.493H20.95a5.245,5.245,0,0,0,3.677-1.494c.041-.04-.309.373,5.313-6.347a2.343,2.343,0,0,0-3.566-3.041l-3.457,3.553a2.354,2.354,0,0,0-1.821-.872H14.565a7.557,7.557,0,0,0-2.933-.586,7.247,7.247,0,0,0-6.606,3.746,1.75,1.75,0,0,0-1.567.485L.672,222.252a.586.586,0,0,0,0,.826ZM11.631,216.4a6.4,6.4,0,0,1,2.579.537.585.585,0,0,0,.235.049H21.1a1.172,1.172,0,1,1,0,2.343H16.317a.586.586,0,0,0,0,1.171H21.1a2.34,2.34,0,0,0,2.323-2.649c3.344-3.437,3.815-3.92,3.835-3.944a1.172,1.172,0,1,1,1.789,1.514L23.79,221.7a4.079,4.079,0,0,1-2.839,1.142H13.163a2.912,2.912,0,0,0-2.033.821l-.5.48-4.589-4.589a6.048,6.048,0,0,1,5.589-3.157Zm-7.343,3.887a.584.584,0,0,1,.725-.082c.1.062-.19-.2,5.074,5.053a.587.587,0,0,1,0,.826l-2.421,2.385-5.756-5.8Zm0,0" transform="translate(-0.501 -199.878)"/><path class="a" d="M267,40.574v.686a1.757,1.757,0,0,0,.586,3.414.586.586,0,0,1,0,1.171,1.06,1.06,0,0,1-.761-.443.586.586,0,1,0-.9.754A2.429,2.429,0,0,0,267,46.92V47.6a.586.586,0,1,0,1.171,0v-.686a1.757,1.757,0,0,0-.586-3.414.586.586,0,0,1,0-1.172.941.941,0,0,1,.634.306.586.586,0,0,0,.815-.842,2.263,2.263,0,0,0-.863-.539v-.682a.586.586,0,1,0-1.171,0Zm0,0" transform="translate(-250.242 -37.645)"/></svg>