<svg xmlns="http://www.w3.org/2000/svg" width="18.815" height="32.11" viewBox="0 0 18.815 32.11"><defs><style>.a{fill:#e3ba32;}</style></defs><path class="a" d="M140.627,304.254a.627.627,0,1,0-.627-.627A.627.627,0,0,0,140.627,304.254Zm0,0" transform="translate(-131.22 -283.997)"/><path class="a" d="M12.837,15.505a9.872,9.872,0,0,0,3.484-3.6,9.71,9.71,0,0,0,1.24-4.735V3.655a1.885,1.885,0,0,0,1.254-1.774V.627A.627.627,0,0,0,18.188,0H.628A.627.627,0,0,0,0,.627V1.881A1.885,1.885,0,0,0,1.255,3.655V7.171a9.71,9.71,0,0,0,1.24,4.735,9.871,9.871,0,0,0,3.484,3.6.657.657,0,0,1,0,1.1,9.87,9.87,0,0,0-3.484,3.6,9.71,9.71,0,0,0-1.24,4.735v3.516A1.885,1.885,0,0,0,0,30.228v1.254a.627.627,0,0,0,.627.627h17.56a.627.627,0,0,0,.627-.627V30.228a1.885,1.885,0,0,0-1.254-1.774V24.939a9.71,9.71,0,0,0-1.24-4.735,9.871,9.871,0,0,0-3.484-3.6.656.656,0,0,1,0-1.1ZM1.255,1.254H17.561v.627a.628.628,0,0,1-.627.627H1.882a.628.628,0,0,1-.627-.627Zm16.306,29.6H1.255v-.627a.628.628,0,0,1,.627-.627H16.933a.628.628,0,0,1,.627.627ZM12.186,17.676a8.454,8.454,0,0,1,4.12,7.263v3.408H2.509V24.939a8.454,8.454,0,0,1,4.12-7.263,1.91,1.91,0,0,0,0-3.243,8.454,8.454,0,0,1-4.12-7.263V3.763h13.8V7.171a8.454,8.454,0,0,1-4.12,7.263,1.91,1.91,0,0,0,0,3.243Zm0,0" transform="translate(0 0)"/><path class="a" d="M66.144,342.712a.627.627,0,0,0-.5-.251h0a.627.627,0,0,0-.5.25,3.19,3.19,0,0,1-.875.8,14.21,14.21,0,0,1-1.926.942c-1.256.53-2.34.987-2.34,2.725v.276a.627.627,0,0,0,.627.627H70.662a.627.627,0,0,0,.627-.627v-.276c0-1.737-1.087-2.2-2.345-2.729A14.483,14.483,0,0,1,67,343.492,3.121,3.121,0,0,1,66.144,342.712Zm3.866,4.11H61.279c.1-.58.491-.772,1.549-1.218a15.5,15.5,0,0,0,2.089-1.025l.006,0a4.527,4.527,0,0,0,.719-.55,4.415,4.415,0,0,0,.7.535l.007,0a15.753,15.753,0,0,0,2.108,1.036c1.062.449,1.459.643,1.555,1.222Zm0,0" transform="translate(-56.237 -320.983)"/><path class="a" d="M71.289,87.78V86.626a.627.627,0,0,0-.96-.532,8.84,8.84,0,0,1-9.37,0,.627.627,0,0,0-.96.532V87.78a5.97,5.97,0,0,0,1.211,3.376,10.237,10.237,0,0,0,3.08,2.814,3.1,3.1,0,0,1,.726.651v3.106a.627.627,0,1,0,1.254,0v-3.1a3.2,3.2,0,0,1,.751-.666c2.552-1.539,4.266-4.021,4.266-6.176Zm-4.917,5.1-.006,0a4.242,4.242,0,0,0-.719.566,4.05,4.05,0,0,0-.7-.551l-.007,0c-2.206-1.329-3.688-3.385-3.688-5.118v-.092a10.1,10.1,0,0,0,8.78,0v.092c0,1.706-1.506,3.8-3.663,5.1Zm0,0" transform="translate(-56.237 -80.605)"/></svg>