<svg xmlns="http://www.w3.org/2000/svg" width="40.047" height="40.048" viewBox="0 0 40.047 40.048"><defs><style>.a{fill:none;}.b{fill:#e3ba32;}</style></defs><g transform="translate(-0.005)"><ellipse class="a" cx="18.831" cy="10.461" rx="18.831" ry="10.461" transform="translate(0.843 17.575)"/><ellipse class="a" cx="12.135" cy="4.603" rx="12.135" ry="4.603" transform="translate(7.538 23.434)"/><ellipse class="a" cx="2.092" cy="2.511" rx="2.092" ry="2.511" transform="translate(10.049 29.292)"/><ellipse class="a" cx="2.511" cy="2.092" rx="2.511" ry="2.092" transform="translate(30.972 33.476)"/><path class="a" d="M146.38,26.165c0,7.773-10.165,16.742-10.165,16.742s-10.165-8.969-10.165-16.742a10.165,10.165,0,1,1,20.329,0Z" transform="translate(-116.187 -14.749)"/><path class="a" d="M248.658,26.139c0,7.772-10.165,16.741-10.165,16.741s-.59-.521-1.486-1.42c2.822-2.832,8.679-9.422,8.679-15.322a10.167,10.167,0,0,0-8.679-10.057A10.169,10.169,0,0,1,248.658,26.139Z" transform="translate(-218.465 -14.722)"/><ellipse class="a" cx="5.021" cy="5.44" rx="5.021" ry="5.44" transform="translate(15.07 5.858)"/><path class="a" d="M242.577,84.962a5.01,5.01,0,0,1-6.57,4.756,5.007,5.007,0,0,0,0-9.513A5.01,5.01,0,0,1,242.577,84.962Z" transform="translate(-217.543 -73.699)"/><path class="b" d="M40.052,28.158c0-5.273-5.3-8.787-10.271-10.411a14.777,14.777,0,0,0,1.664-6.331,11.416,11.416,0,1,0-22.832,0,14.777,14.777,0,0,0,1.664,6.331c-11.769,3.844-13.8,13.547-4.139,19.022,6.888,3.9,17.3,4.271,24.841,1.377a3.752,3.752,0,0,0,6.3-3.884,8.625,8.625,0,0,0,2.777-6.1ZM20.028,2.5a8.923,8.923,0,0,1,8.913,8.913c0,5.2-5.186,11.417-8.914,15.027-3.729-3.608-8.913-9.828-8.913-15.027A8.923,8.923,0,0,1,20.028,2.5Zm-4.395,28.46a3.757,3.757,0,0,0-6.164-2.54.574.574,0,0,1-.079-.265c0-.662,1.815-2.108,6.146-2.79A45.152,45.152,0,0,0,19.2,29.1a1.252,1.252,0,0,0,1.656,0,45.194,45.194,0,0,0,3.663-3.728c4.331.682,6.146,2.128,6.146,2.79,0,.454-.833,1.249-2.663,1.923a27.282,27.282,0,0,1-12.369.882Zm-3.74-.928a1.251,1.251,0,1,1-1.251,1.251A1.253,1.253,0,0,1,11.894,30.035ZM7.372,34.591C-.951,29.874,2.04,22.866,11.505,19.983a35.6,35.6,0,0,0,2.208,3.18c-2.842.619-6.825,2.088-6.825,4.995A3.445,3.445,0,0,0,8.18,30.741,3.753,3.753,0,0,0,15,33.4c7.753,1.268,18.171-.586,18.171-5.238,0-2.906-3.981-4.375-6.825-4.995a35.6,35.6,0,0,0,2.208-3.18c5.5,1.675,9,4.826,9,8.175a6.2,6.2,0,0,1-1.938,4.225,3.757,3.757,0,0,0-5.567,3.438c-6.771,2.588-16.4,2.326-22.672-1.23Zm26.423,2.327a1.251,1.251,0,1,1,1.251-1.251A1.253,1.253,0,0,1,33.794,36.918Z" transform="translate(0)"/><path class="b" d="M182.264,76.515a6.257,6.257,0,1,0-6.257-6.257A6.264,6.264,0,0,0,182.264,76.515Zm0-10.012a3.754,3.754,0,1,1-3.754,3.754A3.759,3.759,0,0,1,182.264,66.5Z" transform="translate(-162.236 -58.994)"/></g></svg>