<svg xmlns="http://www.w3.org/2000/svg" width="40.253" height="40.253" viewBox="0 0 40.253 40.253"><defs><style>.a{fill:#e3ba32;}</style></defs><g transform="translate(0)"><path class="a" d="M39.192,109.85H35.043a.59.59,0,0,0,0,1.179h4.026a1.3,1.3,0,0,1-1.292,1.179H2.476a1.3,1.3,0,0,1-1.292-1.179H32.278a.59.59,0,1,0,0-1.179H28.343a2.14,2.14,0,0,0,.234-.943h.433a2.165,2.165,0,0,0,2.162-2.162V86.618a2.165,2.165,0,0,0-2.162-2.162h-.594a.59.59,0,1,0,0,1.179h.594a.984.984,0,0,1,.983.983v1.1H10.26v-1.1a.984.984,0,0,1,.983-.983H25.62a.59.59,0,0,0,0-1.179h-.265v-.668a1.377,1.377,0,0,0-1.376-1.376H20.716V79.965a.59.59,0,1,0-1.179,0v2.447H16.274A1.377,1.377,0,0,0,14.9,83.788v.668H11.243a2.165,2.165,0,0,0-2.162,2.162V99.531a.59.59,0,0,0,1.179,0v-.884H29.993v6.25H10.26v-2.616a.59.59,0,0,0-1.179,0v4.464a2.164,2.164,0,0,0,2.162,2.162h.433a2.14,2.14,0,0,0,.234.943H1.061A1.063,1.063,0,0,0,0,110.911a2.479,2.479,0,0,0,2.477,2.477h35.3a2.479,2.479,0,0,0,2.477-2.477,1.063,1.063,0,0,0-1.061-1.061ZM16.078,83.788a.2.2,0,0,1,.2-.2h7.7a.2.2,0,0,1,.2.2v.668h-8.1ZM15.213,109.8v-.9a6.554,6.554,0,0,0,2.165-.387,5.382,5.382,0,0,1,1.828-.319h1.842a5.38,5.38,0,0,1,1.828.319,6.556,6.556,0,0,0,2.165.387v.9c0,.017,0,.033,0,.05H15.21c0-.017,0-.033,0-.05Zm11.21.05h-.153a.05.05,0,0,1-.05-.05v-.894H27.4A.977.977,0,0,1,26.423,109.85ZM10.26,88.9h8.1v8.57h-8.1Zm9.277,8.57V88.9h1.179v8.57Zm2.359,0V88.9h8.1v8.57ZM10.26,106.745v-.668H29.993v.668a.984.984,0,0,1-.983.983H25.1a5.38,5.38,0,0,1-1.828-.319,6.556,6.556,0,0,0-2.227-.389H19.206a6.557,6.557,0,0,0-2.227.389,5.382,5.382,0,0,1-1.828.319H11.243A.984.984,0,0,1,10.26,106.745Zm2.6,2.162h1.178v.894a.05.05,0,0,1-.05.05h-.153A.977.977,0,0,1,12.856,108.907Z" transform="translate(0 -73.135)"/><path class="a" d="M158.515,343.2a1.386,1.386,0,0,0,1.384-1.384,2.314,2.314,0,0,0-2.311-2.311h-2.044a1.385,1.385,0,0,0-1.384,1.384v.927a1.385,1.385,0,0,0,1.384,1.384h2.971Zm-3.176-1.384v-.927a.2.2,0,0,1,.2-.2h2.044a1.133,1.133,0,0,1,1.132,1.132.2.2,0,0,1-.2.2h-2.971A.2.2,0,0,1,155.339,341.811Z" transform="translate(-142.04 -312.809)"/><path class="a" d="M289.2,343.194a1.385,1.385,0,0,0,1.384-1.384v-.927A1.386,1.386,0,0,0,289.2,339.5h-2.044a2.314,2.314,0,0,0-2.311,2.311,1.386,1.386,0,0,0,1.384,1.384H289.2Zm-3.176-1.384a1.133,1.133,0,0,1,1.132-1.132H289.2a.2.2,0,0,1,.2.2v.927a.2.2,0,0,1-.2.2h-2.971A.205.205,0,0,1,286.019,341.81Z" transform="translate(-262.446 -312.808)"/><path class="a" d="M224.384,53.44a4.043,4.043,0,0,0-2.468.833.59.59,0,0,0,.714.938,2.9,2.9,0,0,1,3.5,0,.59.59,0,1,0,.713-.94A4.042,4.042,0,0,0,224.384,53.44Z" transform="translate(-204.255 -49.239)"/><path class="a" d="M216.351,28.3a.59.59,0,0,0-.113-.826,5.707,5.707,0,0,0-6.909,0,.59.59,0,0,0,.714.938,4.528,4.528,0,0,1,5.482,0A.59.59,0,0,0,216.351,28.3Z" transform="translate(-192.657 -24.239)"/><path class="a" d="M197.589,2.546a.587.587,0,0,0,.357-.12,6.1,6.1,0,0,1,7.384,0,.59.59,0,1,0,.713-.939,7.278,7.278,0,0,0-8.812,0,.59.59,0,0,0,.358,1.059Z" transform="translate(-181.511)"/></g></svg>