<svg xmlns="http://www.w3.org/2000/svg" width="41.094" height="66.201" viewBox="0 0 41.094 66.201"><defs><style>.a{fill:#e3ba32;}</style></defs><g transform="translate(-13.821 -438.257)"><path class="a" d="M40.183,191.07H12.91A6.91,6.91,0,0,0,6,197.98v25.983a6.91,6.91,0,0,0,6.91,6.91H40.183a6.91,6.91,0,0,0,6.91-6.91V197.934A6.91,6.91,0,0,0,40.183,191.07ZM19.66,218.712l4.169-7.072a5.713,5.713,0,1,1,5.713,0l4.1,7.164Z" transform="translate(7.821 273.585)"/><path class="a" d="M35.858,204.3H31V193.039a8.569,8.569,0,0,0-17.115,0V204.3H9V193.039a13.429,13.429,0,0,1,26.858,0Z" transform="translate(11.731 258.647)"/></g></svg>