<svg xmlns="http://www.w3.org/2000/svg" width="73.942" height="57.241" viewBox="0 0 73.942 57.241"><defs><style>.a{fill:#e3ba32;}</style></defs><g transform="translate(0 -683.668)"><path class="a" d="M58.336,286.15H7.822A7.822,7.822,0,0,0,0,293.972v22.685a7.822,7.822,0,0,0,7.822,7.822H58.336a7.822,7.822,0,0,0,7.822-7.822V293.972A7.823,7.823,0,0,0,58.336,286.15ZM2.19,316.736V294.051a5.71,5.71,0,0,1,5.633-5.71H30.508a5.71,5.71,0,0,1,5.71,5.71v22.685a5.71,5.71,0,0,1-5.71,5.71H7.822a5.71,5.71,0,0,1-5.632-5.71Z" transform="translate(0 397.519)"/><rect class="a" width="7.451" height="2.19" transform="translate(23.135 719.965)"/><rect class="a" width="7.451" height="2.19" transform="translate(23.135 683.668)"/><path class="a" d="M4.1,301.5A11.245,11.245,0,1,1,15.325,312.73,11.245,11.245,0,0,1,4.1,301.5Z" transform="translate(3.918 401.427)"/><path class="a" d="M14.74,290.524a1.662,1.662,0,1,1,1.653,1.482,1.662,1.662,0,0,1-1.653-1.482Z" transform="translate(14.086 400.282)"/><path class="a" d="M50.747,309.044c-1.662,0-3.07,2.64-3.422,6.2h-17.6a5.319,5.319,0,0,1-5.319-5.319V305.27H20.67v4.654a9,9,0,0,0,8.976,8.976h17.6c.352,3.559,1.76,6.219,3.422,6.219s3.52-3.6,3.52-8.038S52.605,309.044,50.747,309.044Z" transform="translate(19.753 415.79)"/></g></svg>