<svg xmlns="http://www.w3.org/2000/svg" width="36.539" height="58.845" viewBox="0 0 36.539 58.845"><defs><style>.a{fill:#e3ba32;}</style></defs><g transform="translate(-16.096 -562.906)"><path class="a" d="M29.415,260.016a1.935,1.935,0,0,1,0-3.778,1.958,1.958,0,0,0-1.958-1.958H12.968a5.782,5.782,0,0,1-1.958,5.736,1.981,1.981,0,0,0,1.5,1.912,1.958,1.958,0,0,0,.461,3.847H27.5a5.736,5.736,0,0,1,1.958-5.759Z" transform="translate(14.351 355.977)"/><path class="a" d="M23.14,233.853a18.243,18.243,0,0,0-10.9,30.935,19.971,19.971,0,0,1,5.966,13.982v.184H32.216v-.184a19.649,19.649,0,0,1,5.851-13.821,18.22,18.22,0,0,0-14.926-31.1Zm6.611,22.021-11.218,8.292,5.137-7.555-3.916-5.137,12.185-8.062-5.851,8.246Z" transform="translate(9.108 329.183)"/></g></svg>